<svg id="Layer_1" data-name="Layer 1" xmlns="http://www.w3.org/2000/svg" viewBox="0 0 640 448.1"><defs><style>.cls-1{fill:#b9181e;}</style></defs><path class="cls-1" d="M280,32a24,24,0,0,0,0,48h57.7l16.4,30.3L256,192l-45.3-45.3A64,64,0,0,0,165.4,128H64a32,32,0,0,0-32,32v32h96A160.15,160.15,0,0,1,284.8,384h70.4a160.31,160.31,0,0,1,60.5-159.8l15.4,28.6A128.19,128.19,0,1,0,473.3,230L418.2,128H480a32,32,0,0,0,32-32V64a32,32,0,0,0-32-32H459.6a32,32,0,0,0-20.5,7.4L391.7,78.9l-14-26a40.09,40.09,0,0,0-35.2-21H280ZM462.7,311.2l28.2,52.2a24,24,0,1,0,42.2-22.8l-28.2-52.2a55.29,55.29,0,0,1,7.1-.4,64,64,0,1,1-49.3,23.2ZM187.3,376a64,64,0,1,1,0-48h66.4a127.74,127.74,0,1,0,.1,48ZM128,384a32,32,0,1,0-32-32A32,32,0,0,0,128,384Z" transform="translate(0 -31.9)"/></svg>